<svg xmlns="http://www.w3.org/2000/svg" width="1400" height="760">
<rect width="1400" height="760" fill="#ffffff"/>
<text x="700.0" y="44" text-anchor="middle" font-size="28" font-family="Arial">Online Learning - Context Trend Slopes</text>
<line x1="120" y1="620" x2="1320" y2="620" stroke="#111"/>
<line x1="120" y1="90" x2="120" y2="620" stroke="#111"/>
<line x1="120" y1="620.00" x2="1320" y2="620.00" stroke="#e5e7eb"/>
<line x1="120" y1="514.00" x2="1320" y2="514.00" stroke="#e5e7eb"/>
<line x1="120" y1="408.00" x2="1320" y2="408.00" stroke="#e5e7eb"/>
<line x1="120" y1="302.00" x2="1320" y2="302.00" stroke="#e5e7eb"/>
<line x1="120" y1="196.00" x2="1320" y2="196.00" stroke="#e5e7eb"/>
<line x1="120" y1="90.00" x2="1320" y2="90.00" stroke="#e5e7eb"/>
<path d="M120.24,90.00 L122.40,582.03 L124.80,528.13 L127.20,493.64 L129.60,524.73 L132.00,549.67 L134.40,566.48 L136.80,581.22 L139.20,607.44 L141.60,593.89 L144.00,612.02 L146.40,620.00 L148.80,617.25 L151.20,600.35 L153.60,598.09 L156.00,594.72 L158.40,591.88 L160.80,593.24 L163.20,584.42 L165.60,580.66 L168.00,590.59 L170.40,583.06 L172.80,580.93 L175.20,572.26 L177.60,576.15 L180.00,578.11 L182.40,575.67 L184.80,573.29 L187.20,566.58 L189.60,566.74 L192.00,571.00 L194.40,573.89 L196.80,575.39 L199.20,576.91 L201.60,574.68 L204.00,574.04 L206.40,574.64 L208.80,574.31 L211.20,568.97 L213.60,570.74 L216.00,570.59 L218.40,567.74 L220.80,565.61 L223.20,564.69 L225.60,563.87 L228.00,564.15 L230.40,567.08 L232.80,566.60 L235.20,567.67 L237.60,563.83 L240.00,561.71 L242.40,560.55 L244.80,561.70 L247.20,558.87 L249.60,558.29 L252.00,560.82 L254.40,558.84 L256.80,558.25 L259.20,557.34 L261.60,555.42 L264.00,555.74 L266.40,554.47 L268.80,556.74 L271.20,556.42 L273.60,552.94 L276.00,555.81 L278.40,553.71 L280.80,554.80 L283.20,558.16 L285.60,555.80 L288.00,555.25 L290.40,556.92 L292.80,555.72 L295.20,556.22 L297.60,557.04 L300.00,557.81 L302.40,555.36 L304.80,557.55 L307.20,557.73 L309.60,556.90 L312.00,558.99 L314.40,558.79 L316.80,558.04 L319.20,557.50 L321.60,558.41 L324.00,558.37 L326.40,559.77 L328.80,559.97 L331.20,561.45 L333.60,561.46 L336.00,560.32 L338.40,561.76 L340.80,560.73 L343.20,562.30 L345.60,560.34 L348.00,561.03 L350.40,561.15 L352.80,560.89 L355.20,560.01 L357.60,560.72 L360.00,562.98 L362.40,561.11 L364.80,560.30 L367.20,560.04 L369.60,561.60 L372.00,560.65 L374.40,559.84 L376.80,559.95 L379.20,558.74 L381.60,559.80 L384.00,560.65 L386.40,560.04 L388.80,558.28 L391.20,557.44 L393.60,557.85 L396.00,557.56 L398.40,557.37 L400.80,556.75 L403.20,556.03 L405.60,557.35 L408.00,556.79 L410.40,556.25 L412.80,556.95 L415.20,557.12 L417.60,557.64 L420.00,558.85 L422.40,558.03 L424.80,558.92 L427.20,558.68 L429.60,559.38 L432.00,558.29 L434.40,557.04 L436.80,555.97 L439.20,556.62 L441.60,556.84 L444.00,556.14 L446.40,556.38 L448.80,556.40 L451.20,555.49 L453.60,556.73 L456.00,557.72 L458.40,557.48 L460.80,557.10 L463.20,558.56 L465.60,559.97 L468.00,560.01 L470.40,559.46 L472.80,561.23 L475.20,561.54 L477.60,561.52 L480.00,561.89 L482.40,563.39 L484.80,563.12 L487.20,562.06 L489.60,562.00 L492.00,561.75 L494.40,561.07 L496.80,560.88 L499.20,561.08 L501.60,560.65 L504.00,559.93 L506.40,560.13 L508.80,559.65 L511.20,559.07 L513.60,559.42 L516.00,559.87 L518.40,559.95 L520.80,560.76 L523.20,560.24 L525.60,559.20 L528.00,559.31 L530.40,559.30 L532.80,558.94 L535.20,559.37 L537.60,560.06 L540.00,559.75 L542.40,559.23 L544.80,559.53 L547.20,558.42 L549.60,559.03 L552.00,558.77 L554.40,558.82 L556.80,558.40 L559.20,557.91 L561.60,558.56 L564.00,557.63 L566.40,557.49 L568.80,557.62 L571.20,558.35 L573.60,558.51 L576.00,557.75 L578.40,557.76 L580.80,558.12 L583.20,558.44 L585.60,559.35 L588.00,559.33 L590.40,559.62 L592.80,558.92 L595.20,558.98 L597.60,558.83 L600.00,558.74 L602.40,559.00 L604.80,558.96 L607.20,559.47 L609.60,560.12 L612.00,560.15 L614.40,559.54 L616.80,560.28 L619.20,560.00 L621.60,559.61 L624.00,560.11 L626.40,559.95 L628.80,560.19 L631.20,560.33 L633.60,560.25 L636.00,560.93 L638.40,561.14 L640.80,561.10 L643.20,560.77 L645.60,561.18 L648.00,561.72 L650.40,562.53 L652.80,562.14 L655.20,562.15 L657.60,562.97 L660.00,563.23 L662.40,563.36 L664.80,562.63 L667.20,563.30 L669.60,563.31 L672.00,563.86 L674.40,564.86 L676.80,564.23 L679.20,564.22 L681.60,564.48 L684.00,563.72 L686.40,563.46 L688.80,563.54 L691.20,564.00 L693.60,563.21 L696.00,563.52 L698.40,564.24 L700.80,563.43 L703.20,563.31 L705.60,563.38 L708.00,563.27 L710.40,563.97 L712.80,563.32 L715.20,563.09 L717.60,562.60 L720.00,562.90 L722.40,563.50 L724.80,562.26 L727.20,561.39 L729.60,560.26 L732.00,560.44 L734.40,560.45 L736.80,560.50 L739.20,560.19 L741.60,560.72 L744.00,560.76 L746.40,560.93 L748.80,560.81 L751.20,560.38 L753.60,560.91 L756.00,560.81 L758.40,561.14 L760.80,561.49 L763.20,562.07 L765.60,562.01 L768.00,562.34 L770.40,562.45 L772.80,562.37 L775.20,563.67 L777.60,563.98 L780.00,563.22 L782.40,563.26 L784.80,563.90 L787.20,563.66 L789.60,563.93 L792.00,563.76 L794.40,563.70 L796.80,563.40 L799.20,563.67 L801.60,563.56 L804.00,563.86 L806.40,563.67 L808.80,563.72 L811.20,563.94 L813.60,564.07 L816.00,564.92 L818.40,565.42 L820.80,565.55 L823.20,564.88 L825.60,564.93 L828.00,564.96 L830.40,564.76 L832.80,564.37 L835.20,564.73 L837.60,565.45 L840.00,565.63 L842.40,565.30 L844.80,564.74 L847.20,565.46 L849.60,565.98 L852.00,566.03 L854.40,565.52 L856.80,565.31 L859.20,564.95 L861.60,564.74 L864.00,564.42 L866.40,563.91 L868.80,563.35 L871.20,563.42 L873.60,563.52 L876.00,563.14 L878.40,563.68 L880.80,563.71 L883.20,564.07 L885.60,564.42 L888.00,564.55 L890.40,564.50 L892.80,564.72 L895.20,564.54 L897.60,564.48 L900.00,564.51 L902.40,564.30 L904.80,564.91 L907.20,564.91 L909.60,565.25 L912.00,565.18 L914.40,565.38 L916.80,565.90 L919.20,566.54 L921.60,566.65 L924.00,566.61 L926.40,565.97 L928.80,565.64 L931.20,565.73 L933.60,565.69 L936.00,566.05 L938.40,565.78 L940.80,565.57 L943.20,565.22 L945.60,565.04 L948.00,565.01 L950.40,564.93 L952.80,565.23 L955.20,565.18 L957.60,565.14 L960.00,564.75 L962.40,564.40 L964.80,564.22 L967.20,564.09 L969.60,563.76 L972.00,564.39 L974.40,564.31 L976.80,564.59 L979.20,564.70 L981.60,564.82 L984.00,564.76 L986.40,565.01 L988.80,565.06 L991.20,565.22 L993.60,565.48 L996.00,565.85 L998.40,565.74 L1000.80,565.57 L1003.20,565.79 L1005.60,565.93 L1008.00,565.44 L1010.40,565.75 L1012.80,565.57 L1015.20,565.45 L1017.60,565.43 L1020.00,565.75 L1022.40,565.67 L1024.80,565.27 L1027.20,565.01 L1029.60,565.24 L1032.00,564.80 L1034.40,565.32 L1036.80,565.23 L1039.20,565.66 L1041.60,565.76 L1044.00,565.65 L1046.40,566.22 L1048.80,566.04 L1051.20,566.32 L1053.60,566.32 L1056.00,566.32 L1058.40,566.16 L1060.80,566.33 L1063.20,566.23 L1065.60,566.16 L1068.00,566.12 L1070.40,566.08 L1072.80,566.41 L1075.20,566.43 L1077.60,566.14 L1080.00,566.55 L1082.40,566.55 L1084.80,566.82 L1087.20,566.90 L1089.60,566.64 L1092.00,566.26 L1094.40,566.32 L1096.80,565.81 L1099.20,565.55 L1101.60,565.16 L1104.00,565.13 L1106.40,565.31 L1108.80,565.42 L1111.20,565.31 L1113.60,565.34 L1116.00,565.49 L1118.40,564.99 L1120.80,565.03 L1123.20,565.20 L1125.60,565.61 L1128.00,565.75 L1130.40,566.18 L1132.80,565.61 L1135.20,565.33 L1137.60,565.08 L1140.00,565.39 L1142.40,565.42 L1144.80,565.75 L1147.20,565.26 L1149.60,565.49 L1152.00,565.21 L1154.40,565.24 L1156.80,564.89 L1159.20,564.29 L1161.60,564.05 L1164.00,564.09 L1166.40,564.35 L1168.80,564.23 L1171.20,564.36 L1173.60,564.07 L1176.00,564.13 L1178.40,563.85 L1180.80,563.74 L1183.20,563.76 L1185.60,563.75 L1188.00,563.48 L1190.40,563.99 L1192.80,564.02 L1195.20,564.20 L1197.60,564.13 L1200.00,564.31 L1202.40,564.25 L1204.80,564.19 L1207.20,564.40 L1209.60,564.46 L1212.00,564.27 L1214.40,564.71 L1216.80,564.67 L1219.20,564.72 L1221.60,564.51 L1224.00,564.83 L1226.40,565.04 L1228.80,564.79 L1231.20,564.35 L1233.60,564.56 L1236.00,564.58 L1238.40,564.30 L1240.80,564.41 L1243.20,564.34 L1245.60,564.26 L1248.00,564.64 L1250.40,564.14 L1252.80,563.83 L1255.20,563.43 L1257.60,563.31 L1260.00,563.40 L1262.40,563.84 L1264.80,564.02 L1267.20,564.03 L1269.60,563.91 L1272.00,563.75 L1274.40,563.73 L1276.80,563.62 L1279.20,563.28 L1281.60,562.74 L1284.00,562.93 L1286.40,563.38 L1288.80,563.36 L1291.20,563.34 L1293.60,563.63 L1296.00,563.65 L1298.40,563.05 L1300.80,562.43 L1303.20,561.80 L1305.60,561.20 L1308.00,560.60 L1310.40,559.96 L1312.80,559.33 L1315.20,558.73 L1317.60,558.06 L1320.00,557.45" fill="none" stroke="#dc2626" stroke-width="2.5"/>
<rect x="980" y="103" width="18" height="10" fill="#dc2626"/>
<text x="1006" y="112" font-size="13" font-family="Arial">global</text>
<path d="M120.00,580.25 L360.00,571.35" fill="none" stroke="#2563eb" stroke-width="2.5"/>
<rect x="980" y="125" width="18" height="10" fill="#2563eb"/>
<text x="1006" y="134" font-size="13" font-family="Arial">high_conf_low_div (slope=0.00001)</text>
<path d="M120.00,568.00 L360.00,574.99" fill="none" stroke="#16a34a" stroke-width="2.5"/>
<rect x="980" y="147" width="18" height="10" fill="#16a34a"/>
<text x="1006" y="156" font-size="13" font-family="Arial">high_conf_high_div (slope=-0.00001)</text>
<path d="M120.00,523.69 L360.00,531.78" fill="none" stroke="#7c3aed" stroke-width="2.5"/>
<rect x="980" y="169" width="18" height="10" fill="#7c3aed"/>
<text x="1006" y="178" font-size="13" font-family="Arial">low_conf_low_div (slope=-0.00001)</text>
<path d="M120.00,545.38 L360.00,546.22" fill="none" stroke="#ea580c" stroke-width="2.5"/>
<rect x="980" y="191" width="18" height="10" fill="#ea580c"/>
<text x="1006" y="200" font-size="13" font-family="Arial">low_conf_high_div (slope=-0.00000)</text>
</svg>