<svg xmlns="http://www.w3.org/2000/svg" width="1200" height="700">
<rect width="1200" height="700" fill="#ffffff"/>
<text x="600.0" y="44" text-anchor="middle" font-size="28" font-family="Arial">Online Learning - Running Avg Reward</text>
<line x1="120" y1="560" x2="1140" y2="560" stroke="#222"/>
<line x1="120" y1="90" x2="120" y2="560" stroke="#222"/>
<path d="M120.00,90.00 L121.84,526.33 L123.88,478.53 L125.92,447.94 L127.96,475.51 L130.00,497.64 L132.04,512.54 L134.08,525.61 L136.12,548.86 L138.16,536.85 L140.20,552.92 L142.24,560.00 L144.28,557.56 L146.32,542.58 L148.36,540.57 L150.40,537.58 L152.44,535.06 L154.48,536.27 L156.52,528.45 L158.56,525.12 L160.60,533.92 L162.64,527.24 L164.68,525.35 L166.73,517.66 L168.77,521.11 L170.81,522.85 L172.85,520.68 L174.89,518.58 L176.93,512.63 L178.97,512.77 L181.01,516.54 L183.05,519.11 L185.09,520.44 L187.13,521.78 L189.17,519.81 L191.21,519.25 L193.25,519.77 L195.29,519.48 L197.33,514.74 L199.37,516.31 L201.41,516.18 L203.45,513.66 L205.49,511.77 L207.53,510.96 L209.57,510.23 L211.61,510.47 L213.65,513.07 L215.70,512.65 L217.74,513.59 L219.78,510.19 L221.82,508.31 L223.86,507.28 L225.90,508.30 L227.94,505.79 L229.98,505.27 L232.02,507.52 L234.06,505.77 L236.10,505.24 L238.14,504.43 L240.18,502.73 L242.22,503.02 L244.26,501.89 L246.30,503.90 L248.34,503.62 L250.38,500.53 L252.42,503.08 L254.46,501.22 L256.50,502.18 L258.54,505.16 L260.58,503.07 L262.62,502.58 L264.66,504.06 L266.71,503.00 L268.75,503.44 L270.79,504.17 L272.83,504.85 L274.87,502.67 L276.91,504.62 L278.95,504.78 L280.99,504.04 L283.03,505.89 L285.07,505.72 L287.11,505.05 L289.15,504.58 L291.19,505.39 L293.23,505.34 L295.27,506.59 L297.31,506.77 L299.35,508.08 L301.39,508.09 L303.43,507.07 L305.47,508.35 L307.51,507.44 L309.55,508.83 L311.59,507.09 L313.63,507.71 L315.68,507.81 L317.72,507.58 L319.76,506.80 L321.80,507.43 L323.84,509.44 L325.88,507.77 L327.92,507.06 L329.96,506.83 L332.00,508.21 L334.04,507.37 L336.08,506.65 L338.12,506.75 L340.16,505.67 L342.20,506.62 L344.24,507.37 L346.28,506.83 L348.32,505.27 L350.36,504.52 L352.40,504.88 L354.44,504.63 L356.48,504.46 L358.52,503.91 L360.56,503.27 L362.60,504.44 L364.64,503.95 L366.69,503.46 L368.73,504.08 L370.77,504.24 L372.81,504.70 L374.85,505.77 L376.89,505.05 L378.93,505.83 L380.97,505.62 L383.01,506.25 L385.05,505.28 L387.09,504.17 L389.13,503.22 L391.17,503.80 L393.21,503.99 L395.25,503.37 L397.29,503.59 L399.33,503.60 L401.37,502.79 L403.41,503.89 L405.45,504.77 L407.49,504.55 L409.53,504.22 L411.57,505.52 L413.61,506.76 L415.66,506.80 L417.70,506.31 L419.74,507.88 L421.78,508.16 L423.82,508.14 L425.86,508.47 L427.90,509.80 L429.94,509.56 L431.98,508.62 L434.02,508.56 L436.06,508.34 L438.10,507.74 L440.14,507.57 L442.18,507.75 L444.22,507.37 L446.26,506.73 L448.30,506.90 L450.34,506.48 L452.38,505.97 L454.42,506.28 L456.46,506.68 L458.50,506.75 L460.54,507.46 L462.58,507.00 L464.62,506.08 L466.67,506.18 L468.71,506.17 L470.75,505.85 L472.79,506.23 L474.83,506.84 L476.87,506.57 L478.91,506.11 L480.95,506.37 L482.99,505.39 L485.03,505.93 L487.07,505.70 L489.11,505.75 L491.15,505.37 L493.19,504.94 L495.23,505.51 L497.27,504.69 L499.31,504.57 L501.35,504.68 L503.39,505.33 L505.43,505.47 L507.47,504.80 L509.51,504.80 L511.55,505.13 L513.59,505.41 L515.64,506.21 L517.68,506.20 L519.72,506.46 L521.76,505.83 L523.80,505.89 L525.84,505.75 L527.88,505.67 L529.92,505.90 L531.96,505.87 L534.00,506.33 L536.04,506.90 L538.08,506.93 L540.12,506.38 L542.16,507.04 L544.20,506.80 L546.24,506.45 L548.28,506.89 L550.32,506.75 L552.36,506.96 L554.40,507.09 L556.44,507.02 L558.48,507.62 L560.52,507.80 L562.56,507.77 L564.60,507.48 L566.65,507.83 L568.69,508.32 L570.73,509.03 L572.77,508.69 L574.81,508.70 L576.85,509.42 L578.89,509.65 L580.93,509.77 L582.97,509.13 L585.01,509.72 L587.05,509.73 L589.09,510.22 L591.13,511.10 L593.17,510.55 L595.21,510.54 L597.25,510.77 L599.29,510.09 L601.33,509.86 L603.37,509.93 L605.41,510.34 L607.45,509.64 L609.49,509.91 L611.53,510.55 L613.57,509.83 L615.62,509.73 L617.66,509.79 L619.70,509.69 L621.74,510.32 L623.78,509.74 L625.82,509.53 L627.86,509.10 L629.90,509.36 L631.94,509.90 L633.98,508.80 L636.02,508.02 L638.06,507.02 L640.10,507.18 L642.14,507.19 L644.18,507.24 L646.22,506.97 L648.26,507.43 L650.30,507.46 L652.34,507.62 L654.38,507.51 L656.42,507.13 L658.46,507.60 L660.50,507.51 L662.54,507.80 L664.58,508.11 L666.63,508.63 L668.67,508.57 L670.71,508.87 L672.75,508.97 L674.79,508.89 L676.83,510.05 L678.87,510.33 L680.91,509.65 L682.95,509.68 L684.99,510.25 L687.03,510.04 L689.07,510.28 L691.11,510.12 L693.15,510.07 L695.19,509.80 L697.23,510.05 L699.27,509.95 L701.31,510.21 L703.35,510.05 L705.39,510.09 L707.43,510.29 L709.47,510.40 L711.51,511.16 L713.55,511.60 L715.60,511.71 L717.64,511.12 L719.68,511.16 L721.72,511.19 L723.76,511.02 L725.80,510.67 L727.84,510.99 L729.88,511.62 L731.92,511.79 L733.96,511.49 L736.00,510.99 L738.04,511.64 L740.08,512.09 L742.12,512.14 L744.16,511.69 L746.20,511.50 L748.24,511.18 L750.28,510.99 L752.32,510.71 L754.36,510.26 L756.40,509.77 L758.44,509.83 L760.48,509.92 L762.52,509.58 L764.56,510.06 L766.61,510.08 L768.65,510.41 L770.69,510.71 L772.73,510.82 L774.77,510.78 L776.81,510.97 L778.85,510.82 L780.89,510.77 L782.93,510.79 L784.97,510.61 L787.01,511.15 L789.05,511.14 L791.09,511.45 L793.13,511.39 L795.17,511.56 L797.21,512.02 L799.25,512.59 L801.29,512.69 L803.33,512.66 L805.37,512.09 L807.41,511.79 L809.45,511.87 L811.49,511.84 L813.53,512.15 L815.58,511.92 L817.62,511.73 L819.66,511.42 L821.70,511.26 L823.74,511.24 L825.78,511.16 L827.82,511.43 L829.86,511.38 L831.90,511.35 L833.94,511.01 L835.98,510.69 L838.02,510.54 L840.06,510.42 L842.10,510.12 L844.14,510.68 L846.18,510.61 L848.22,510.86 L850.26,510.96 L852.30,511.06 L854.34,511.02 L856.38,511.24 L858.42,511.28 L860.46,511.42 L862.50,511.66 L864.54,511.98 L866.59,511.88 L868.63,511.74 L870.67,511.93 L872.71,512.05 L874.75,511.62 L876.79,511.89 L878.83,511.73 L880.87,511.63 L882.91,511.61 L884.95,511.89 L886.99,511.82 L889.03,511.46 L891.07,511.24 L893.11,511.44 L895.15,511.05 L897.19,511.51 L899.23,511.43 L901.27,511.81 L903.31,511.90 L905.35,511.80 L907.39,512.31 L909.43,512.15 L911.47,512.40 L913.51,512.40 L915.56,512.40 L917.60,512.25 L919.64,512.40 L921.68,512.32 L923.72,512.26 L925.76,512.22 L927.80,512.18 L929.84,512.47 L931.88,512.50 L933.92,512.23 L935.96,512.60 L938.00,512.60 L940.04,512.84 L942.08,512.92 L944.12,512.68 L946.16,512.35 L948.20,512.40 L950.24,511.95 L952.28,511.71 L954.32,511.37 L956.36,511.34 L958.40,511.50 L960.44,511.60 L962.48,511.50 L964.52,511.53 L966.57,511.66 L968.61,511.21 L970.65,511.25 L972.69,511.41 L974.73,511.77 L976.77,511.89 L978.81,512.27 L980.85,511.77 L982.89,511.51 L984.93,511.30 L986.97,511.57 L989.01,511.60 L991.05,511.89 L993.09,511.45 L995.13,511.66 L997.17,511.41 L999.21,511.44 L1001.25,511.13 L1003.29,510.60 L1005.33,510.39 L1007.37,510.42 L1009.41,510.65 L1011.45,510.54 L1013.49,510.66 L1015.54,510.40 L1017.58,510.46 L1019.62,510.20 L1021.66,510.11 L1023.70,510.13 L1025.74,510.12 L1027.78,509.88 L1029.82,510.33 L1031.86,510.36 L1033.90,510.52 L1035.94,510.46 L1037.98,510.62 L1040.02,510.56 L1042.06,510.51 L1044.10,510.70 L1046.14,510.75 L1048.18,510.58 L1050.22,510.97 L1052.26,510.93 L1054.30,510.98 L1056.34,510.79 L1058.38,511.08 L1060.42,511.27 L1062.46,511.04 L1064.50,510.65 L1066.55,510.84 L1068.59,510.85 L1070.63,510.61 L1072.67,510.70 L1074.71,510.64 L1076.75,510.57 L1078.79,510.91 L1080.83,510.46 L1082.87,510.19 L1084.91,509.84 L1086.95,509.73 L1088.99,509.81 L1091.03,510.20 L1093.07,510.36 L1095.11,510.37 L1097.15,510.26 L1099.19,510.12 L1101.23,510.10 L1103.27,510.01 L1105.31,509.70 L1107.35,509.22 L1109.39,509.39 L1111.43,509.79 L1113.47,509.77 L1115.52,509.75 L1117.56,510.01 L1119.60,510.03 L1121.64,509.50 L1123.68,508.95 L1125.72,508.39 L1127.76,507.86 L1129.80,507.33 L1131.84,506.75 L1133.88,506.20 L1135.92,505.67 L1137.96,505.07 L1140.00,504.53" fill="none" stroke="#ef4444" stroke-width="2"/>
<circle cx="120.00" cy="90.00" r="2.5" fill="#ef4444"/>
<circle cx="152.44" cy="535.06" r="2.5" fill="#ef4444"/>
<circle cx="185.09" cy="520.44" r="2.5" fill="#ef4444"/>
<circle cx="217.74" cy="513.59" r="2.5" fill="#ef4444"/>
<circle cx="250.38" cy="500.53" r="2.5" fill="#ef4444"/>
<circle cx="283.03" cy="505.89" r="2.5" fill="#ef4444"/>
<circle cx="315.68" cy="507.81" r="2.5" fill="#ef4444"/>
<circle cx="348.32" cy="505.27" r="2.5" fill="#ef4444"/>
<circle cx="380.97" cy="505.62" r="2.5" fill="#ef4444"/>
<circle cx="413.61" cy="506.76" r="2.5" fill="#ef4444"/>
<circle cx="446.26" cy="506.73" r="2.5" fill="#ef4444"/>
<circle cx="478.91" cy="506.11" r="2.5" fill="#ef4444"/>
<circle cx="511.55" cy="505.13" r="2.5" fill="#ef4444"/>
<circle cx="544.20" cy="506.80" r="2.5" fill="#ef4444"/>
<circle cx="576.85" cy="509.42" r="2.5" fill="#ef4444"/>
<circle cx="609.49" cy="509.91" r="2.5" fill="#ef4444"/>
<circle cx="642.14" cy="507.19" r="2.5" fill="#ef4444"/>
<circle cx="674.79" cy="508.89" r="2.5" fill="#ef4444"/>
<circle cx="707.43" cy="510.29" r="2.5" fill="#ef4444"/>
<circle cx="740.08" cy="512.09" r="2.5" fill="#ef4444"/>
<circle cx="772.73" cy="510.82" r="2.5" fill="#ef4444"/>
<circle cx="805.37" cy="512.09" r="2.5" fill="#ef4444"/>
<circle cx="838.02" cy="510.54" r="2.5" fill="#ef4444"/>
<circle cx="870.67" cy="511.93" r="2.5" fill="#ef4444"/>
<circle cx="903.31" cy="511.90" r="2.5" fill="#ef4444"/>
<circle cx="935.96" cy="512.60" r="2.5" fill="#ef4444"/>
<circle cx="968.61" cy="511.21" r="2.5" fill="#ef4444"/>
<circle cx="1001.25" cy="511.13" r="2.5" fill="#ef4444"/>
<circle cx="1033.90" cy="510.52" r="2.5" fill="#ef4444"/>
<circle cx="1066.55" cy="510.84" r="2.5" fill="#ef4444"/>
<circle cx="1099.19" cy="510.12" r="2.5" fill="#ef4444"/>
<circle cx="1131.84" cy="506.75" r="2.5" fill="#ef4444"/>
</svg>